<svg width="24" height="24" viewBox="0 0 24 24" fill="red" xmlns="http://www.w3.org/2000/svg">
<mask id="mask0_507_1696" style="mask-type:alpha" maskUnits="userSpaceOnUse" x="0" y="0" width="24" height="24">
<rect x="0.5" y="0.5" width="23" height="23" fill="red" stroke="black"/>
</mask>
<g mask="url(#mask0_507_1696)">
<path d="M6.00195 21C4.90195 21 3.96029 20.6083 3.17695 19.825C2.39362 19.0417 2.00195 18.1 2.00195 17C2.00195 15.9 2.39362 14.9583 3.17695 14.175C3.96029 13.3917 4.90195 13 6.00195 13C6.36862 13 6.71862 13.0458 7.05195 13.1375C7.38529 13.2292 7.69362 13.3583 7.97695 13.525L10.602 10.875L7.87695 8.1C7.57695 7.8 7.35612 7.47083 7.21445 7.1125C7.07279 6.75417 7.00195 6.39167 7.00195 6.025C7.00195 5.24167 7.27695 4.54167 7.82695 3.925C8.37695 3.30833 9.10195 3 10.002 3H14.002C14.902 3 15.627 3.30833 16.177 3.925C16.727 4.54167 17.002 5.24167 17.002 6.025C17.002 6.39167 16.9311 6.75833 16.7895 7.125C16.6478 7.49167 16.427 7.825 16.127 8.125L13.402 10.875L16.002 13.525C16.2853 13.3417 16.5978 13.2083 16.9395 13.125C17.2811 13.0417 17.6353 13 18.002 13C19.102 13 20.0436 13.3917 20.827 14.175C21.6103 14.9583 22.002 15.9 22.002 17C22.002 18.1 21.6103 19.0417 20.827 19.825C20.0436 20.6083 19.102 21 18.002 21C16.902 21 15.9603 20.6083 15.177 19.825C14.3936 19.0417 14.002 18.1 14.002 17C14.002 16.6333 14.052 16.275 14.152 15.925C14.252 15.575 14.3936 15.2417 14.577 14.925L12.002 12.3L9.42695 14.925C9.61029 15.2417 9.75195 15.575 9.85195 15.925C9.95195 16.275 10.002 16.6333 10.002 17C10.002 18.1 9.61029 19.0417 8.82695 19.825C8.04362 20.6083 7.10195 21 6.00195 21ZM6.00195 19C6.55195 19 7.02279 18.8042 7.41445 18.4125C7.80612 18.0208 8.00195 17.55 8.00195 17C8.00195 16.45 7.80612 15.9792 7.41445 15.5875C7.02279 15.1958 6.55195 15 6.00195 15C5.45195 15 4.98112 15.1958 4.58945 15.5875C4.19779 15.9792 4.00195 16.45 4.00195 17C4.00195 17.55 4.19779 18.0208 4.58945 18.4125C4.98112 18.8042 5.45195 19 6.00195 19ZM18.002 19C18.552 19 19.0228 18.8042 19.4145 18.4125C19.8061 18.0208 20.002 17.55 20.002 17C20.002 16.45 19.8061 15.9792 19.4145 15.5875C19.0228 15.1958 18.552 15 18.002 15C17.452 15 16.9811 15.1958 16.5895 15.5875C16.1978 15.9792 16.002 16.45 16.002 17C16.002 17.55 16.1978 18.0208 16.5895 18.4125C16.9811 18.8042 17.452 19 18.002 19ZM10.002 5C9.70195 5 9.46029 5.1 9.27695 5.3C9.09362 5.5 9.00195 5.73333 9.00195 6C9.00195 6.13333 9.02695 6.25833 9.07695 6.375C9.12695 6.49167 9.20195 6.6 9.30195 6.7L12.002 9.45L14.702 6.725C14.802 6.625 14.877 6.5125 14.927 6.3875C14.977 6.2625 15.002 6.13333 15.002 6C15.002 5.73333 14.9103 5.5 14.727 5.3C14.5436 5.1 14.302 5 14.002 5H10.002Z" fill="red"/>
</g>
</svg>
