<svg width="20" height="20" viewBox="0 0 24 25" fill="currentColor" xmlns="http://www.w3.org/2000/svg">
<mask id="mask0_40000037_441" style="mask-type:alpha" maskUnits="userSpaceOnUse" x="0" y="0" width="24" height="25">
<rect x="0.5" y="1.26794" width="23" height="23" fill="currentColor" stroke="white"/>
</mask>
<g mask="url(#mask0_40000037_441)">
<path d="M9.32147 19.2201L9.33773 19.2181L9.31303 19.2098C9.04609 19.1205 8.77217 18.9953 8.49128 18.8341C8.2105 18.6728 7.95952 18.5001 7.73831 18.3161L7.74772 18.3048L7.72545 18.3142L4.91437 19.5021L2.61791 15.5213L5.04935 13.6837L5.05772 13.6947L5.05417 13.6718C5.03122 13.5235 5.01493 13.3745 5.00529 13.2249C4.99564 13.0752 4.99081 12.926 4.99081 12.7774C4.99081 12.6356 4.99564 12.4913 5.00529 12.3448C5.01493 12.1983 5.03123 12.0379 5.05421 11.8638L5.06693 11.8655L5.04935 11.8522L2.61793 10.0146L4.91436 6.05298L7.71572 7.23147L7.7105 7.24386L7.72832 7.22974C7.969 7.03913 8.22592 6.8648 8.49907 6.70676C8.77218 6.54875 9.04044 6.42183 9.30384 6.32594L9.30888 6.3398L9.31196 6.31578L9.70081 3.28044H14.2943L14.6737 6.32524L14.6588 6.32709L14.6818 6.33544C14.9811 6.4442 15.2518 6.57113 15.4939 6.71617C15.7364 6.86135 15.9812 7.03252 16.2283 7.22972L16.2199 7.24018L16.2409 7.23149L19.0807 6.05294L21.3772 10.0146L18.9073 11.881L18.8967 11.867L18.9026 11.8937C18.9383 12.0545 18.9578 12.2047 18.9611 12.3442C18.9642 12.4845 18.9658 12.6257 18.9658 12.7679C18.9658 12.9036 18.9626 13.0416 18.9561 13.1819C18.9498 13.3213 18.9269 13.4812 18.8874 13.6615L18.8703 13.6578L18.892 13.6742L21.3427 15.5213L19.046 19.5021L16.241 18.3045L16.2464 18.2917L16.2283 18.3062C15.9812 18.5033 15.7291 18.6777 15.472 18.8292C15.215 18.9808 14.9516 19.1045 14.6819 19.2004L14.6767 19.186L14.6737 19.2106L14.2943 22.2554H9.70085L9.32147 19.2201ZM10.9852 20.7695L10.9865 20.7804H10.9976H12.9631H12.974L12.9755 20.7696L13.3338 18.0992C13.842 17.9657 14.3067 17.7766 14.7278 17.5318C15.1492 17.2867 15.5555 16.9723 15.9466 16.5884L18.4235 17.6295L18.4336 17.6337L18.4391 17.6242L19.4239 15.9242L19.4294 15.9146L19.4206 15.908L17.2584 14.2788C17.3405 14.022 17.3964 13.7702 17.4262 13.5232C17.4564 13.274 17.4716 13.0223 17.4716 12.7679C17.4716 12.5071 17.4565 12.2554 17.4262 12.0126C17.3964 11.7722 17.3405 11.5267 17.2585 11.2763L19.4396 9.62792L19.4484 9.62125L19.4429 9.61168L18.4584 7.91168L18.4529 7.90215L18.4427 7.90643L15.9372 8.96254C15.6029 8.60653 15.203 8.29192 14.7376 8.01867C14.2721 7.74539 13.801 7.55132 13.3245 7.43657L13.01 4.76648L13.0087 4.75544H12.9976H11.0131H11.002L11.0007 4.76641L10.6707 7.42704C10.1627 7.54784 9.69329 7.73218 9.26258 7.98011C8.83153 8.2283 8.4204 8.54752 8.02915 8.93769L5.55237 7.9064L5.54224 7.90219L5.53675 7.91168L4.55225 9.61168L4.54667 9.62131L4.55559 9.62797L6.70773 11.232C6.62572 11.4675 6.5682 11.7123 6.53517 11.9663C6.50176 12.2232 6.48506 12.4936 6.48506 12.7774C6.48506 13.0383 6.50176 13.294 6.53517 13.5446C6.56822 13.7925 6.62266 14.0372 6.6985 14.2788L4.5555 15.908L4.54672 15.9147L4.55225 15.9242L5.53675 17.6242L5.54228 17.6338L5.55244 17.6295L8.01958 16.5828C8.3981 16.9704 8.80275 17.2884 9.23357 17.5365L9.23981 17.5257L9.23358 17.5365C9.66452 17.7845 10.1404 17.9752 10.6612 18.1087L10.9852 20.7695ZM14.1242 14.8831C13.5426 15.4647 12.8378 15.7554 12.0091 15.7554C11.17 15.7554 10.4626 15.4647 9.88619 14.8831C9.30971 14.3015 9.02156 13.5967 9.02156 12.7679C9.02156 11.9392 9.30971 11.2344 9.88619 10.6527C10.4626 10.0712 11.17 9.78044 12.0091 9.78044C12.8378 9.78044 13.5426 10.0711 14.1242 10.6528C14.7059 11.2344 14.9966 11.9392 14.9966 12.7679C14.9966 13.5967 14.7059 14.3015 14.1242 14.8831Z" fill="currentColor" stroke="white" stroke-width="0.025"/>
</g>
</svg>
